<svg xmlns="http://www.w3.org/2000/svg" width="24" height="16.005" viewBox="0 0 24 16.005">
  <path id="Icon_ionic-ios-arrow-round-back" data-name="Icon ionic-ios-arrow-round-back" d="M8.692,15.7A1.089,1.089,0,0,0,8.7,14.167L3.642,9.092H22.917a1.083,1.083,0,1,0,0-2.167H3.642l5.067-5.08A1.1,1.1,0,0,0,8.7.312,1.079,1.079,0,0,0,7.175.32L.308,7.242h0a1.216,1.216,0,0,0-.225.341A1.033,1.033,0,0,0,0,8a1.086,1.086,0,0,0,.308.759l6.867,6.917a1.067,1.067,0,0,0,1.517.025Z" transform="translate(0 0)" fill="#006ad8"/>
</svg>
