<svg xmlns="http://www.w3.org/2000/svg" xmlns:xlink="http://www.w3.org/1999/xlink" width="16.659" height="16" viewBox="0 0 16.659 16">
  <defs>
    <clipPath id="clip-path">
      <rect id="Shape" width="16.659" height="16" fill="#006ad8"/>
    </clipPath>
  </defs>
  <g id="Mask_Group_475" data-name="Mask Group 475" clip-path="url(#clip-path)">
    <path id="bookmark" d="M13.423,16a1.866,1.866,0,0,1-1.324-.557L8,11.366,3.9,15.444a1.866,1.866,0,0,1-2.063.406A1.866,1.866,0,0,1,.667,14.1V3.333A3.333,3.333,0,0,1,4,0h8a3.333,3.333,0,0,1,3.333,3.333V14.1a1.866,1.866,0,0,1-1.167,1.749,1.911,1.911,0,0,1-.741.148ZM4,1.333a2,2,0,0,0-2,2V14.1a.562.562,0,0,0,.958.4h0L7.532,9.954a.667.667,0,0,1,.94,0L13.041,14.5A.562.562,0,0,0,14,14.1V3.333a2,2,0,0,0-2-2Z" transform="translate(0.331)" fill="#006ad8"/>
    <path id="Path_10334" data-name="Path 10334" d="M2.547.91H13.381l1.509.372V4.469l-.5.1h-.838L12.576,4.4l-4.159-1-5,1.169L2.547,4.6l-.905-.2-.2-.65.2-2.425Z" fill="#006ad8" opacity="0"/>
  </g>
</svg>