<svg xmlns="http://www.w3.org/2000/svg" xmlns:xlink="http://www.w3.org/1999/xlink" width="24" height="24" viewBox="0 0 24 24">
  <defs>
    <clipPath id="clip-path">
      <rect id="Rectangle_2308" data-name="Rectangle 2308" width="24" height="24" fill="#006ad8"/>
    </clipPath>
  </defs>
  <g id="Mask_Group_491" data-name="Mask Group 491" clip-path="url(#clip-path)">
    <g id="shopping-cart" transform="translate(0.294)">
      <path id="Path_10488" data-name="Path 10488" d="M.7,4.077A2.993,2.993,0,0,1,3,3H19.169l.042-.351A3,3,0,0,1,22.189,0h.222a1,1,0,0,1,0,2h-.222a1,1,0,0,0-.993.883l-1.376,11.7A5,5,0,0,1,14.854,19H4.411a1,1,0,1,1,0-2H14.854a3,3,0,0,0,2.82-2H5.754A5,5,0,0,1,.833,10.887L.048,6.533A2.994,2.994,0,0,1,.7,4.077Zm1.313,2.1L2.8,10.532A3,3,0,0,0,5.754,13H17.992l.941-8H3a1,1,0,0,0-.99,1.178Z" fill="#006ad8"/>
      <circle id="Ellipse_548" data-name="Ellipse 548" cx="2" cy="2" r="2" transform="translate(14.411 20)" fill="#006ad8"/>
      <circle id="Ellipse_549" data-name="Ellipse 549" cx="2" cy="2" r="2" transform="translate(4.411 20)" fill="#006ad8"/>
    </g>
  </g>
</svg>
