<svg xmlns="http://www.w3.org/2000/svg" width="16" height="13.349" viewBox="0 0 16 13.349">
  <path id="headphones" d="M14.017,8.293v-.95A6.007,6.007,0,0,0,2,7.342v.95a3.337,3.337,0,0,0,1.335,6.392,1.335,1.335,0,0,0,1.335-1.335v-4A1.335,1.335,0,0,0,3.337,8.01V7.342a4.672,4.672,0,0,1,9.345,0V8.01a1.335,1.335,0,0,0-1.335,1.335v4a1.335,1.335,0,0,0,1.335,1.335,3.337,3.337,0,0,0,1.335-6.392ZM3.337,13.349h0a2,2,0,0,1,0-4Zm9.345,0v-4a2,2,0,0,1,0,4Z" transform="translate(-0.01 -1.335)" fill="#006ad8"/>
</svg>
