<svg xmlns="http://www.w3.org/2000/svg" xmlns:xlink="http://www.w3.org/1999/xlink" width="16" height="16" viewBox="0 0 16 16">
  <defs>
    <clipPath id="clip-path">
      <rect id="Rectangle_112" data-name="Rectangle 112" width="16" height="16" transform="translate(328 336)" fill="#006ad8"/>
    </clipPath>
  </defs>
  <g id="Mask_Group_413" data-name="Mask Group 413" transform="translate(-328 -336)" clip-path="url(#clip-path)">
    <path id="info_FILL1_wght600_GRAD0_opsz48" d="M9.322,13.24a.687.687,0,0,0,.492-.193.662.662,0,0,0,.2-.5V9.168a.648.648,0,0,0-.2-.473.695.695,0,0,0-1.187.492v3.378a.639.639,0,0,0,.2.483A.687.687,0,0,0,9.322,13.24ZM9.264,7.218a.79.79,0,0,0,.569-.212.739.739,0,0,0,.222-.56.8.8,0,0,0-.222-.579.816.816,0,0,0-1.139,0,.8.8,0,0,0-.222.579.739.739,0,0,0,.222.56A.79.79,0,0,0,9.264,7.218Zm0,10.036a8.113,8.113,0,0,1-3.156-.608A7.738,7.738,0,0,1,1.882,12.42a8.113,8.113,0,0,1-.608-3.156,8.134,8.134,0,0,1,.608-3.146A7.658,7.658,0,0,1,3.571,3.58a8.136,8.136,0,0,1,2.538-1.7,7.9,7.9,0,0,1,3.156-.627A8.019,8.019,0,0,1,14.948,3.58a8.018,8.018,0,0,1,1.7,2.528,7.9,7.9,0,0,1,.627,3.156,7.9,7.9,0,0,1-.627,3.156,8.136,8.136,0,0,1-1.7,2.538,7.658,7.658,0,0,1-2.538,1.689A8.134,8.134,0,0,1,9.264,17.255Z" transform="translate(326.726 334.745)" fill="#006ad8"/>
  </g>
</svg>
