<svg xmlns="http://www.w3.org/2000/svg" xmlns:xlink="http://www.w3.org/1999/xlink" width="16" height="16" viewBox="0 0 16 16">
  <defs>
    <clipPath id="clip-path">
      <rect id="Rectangle_2496" data-name="Rectangle 2496" width="16" height="16" transform="translate(3072 -1286)" fill="#006ad8" stroke="#707070" stroke-width="1"/>
    </clipPath>
  </defs>
  <g id="Mask_Group_500" data-name="Mask Group 500" transform="translate(-3072 1286)" clip-path="url(#clip-path)">
    <path id="map-marker-plus" d="M5.452,14.97a3.621,3.621,0,0,0,5.051.013l2.656-2.454A7.317,7.317,0,0,0,2.88,2.112l-.069.069a7.317,7.317,0,0,0,0,10.348l.018.018ZM3.751,3.122a5.987,5.987,0,0,1,8.486,8.448l-2.65,2.449a2.338,2.338,0,0,1-3.218-.012L3.751,11.588a5.987,5.987,0,0,1,0-8.467Zm.907,4.233a.665.665,0,0,1,.665-.665h2v-2a.665.665,0,1,1,1.33,0v2h2a.665.665,0,0,1,0,1.33h-2v2a.665.665,0,1,1-1.33,0v-2h-2A.665.665,0,0,1,4.658,7.355Z" transform="translate(3071.998 -1286.003)" fill="#006ad8"/>
  </g>
</svg>
