<svg xmlns="http://www.w3.org/2000/svg" width="13.405" height="16" viewBox="0 0 13.405 16">
  <g id="marker" transform="translate(-1.297 0.001)">
    <path id="Path_10504" data-name="Path 10504" d="M8,4a2.666,2.666,0,1,0,2.666,2.666A2.666,2.666,0,0,0,8,4ZM8,8A1.333,1.333,0,1,1,9.333,6.666,1.333,1.333,0,0,1,8,8Z" fill="#006ad8"/>
    <path id="Path_10505" data-name="Path 10505" d="M8,16a3.514,3.514,0,0,1-2.874-1.467C2.585,11.028,1.3,8.393,1.3,6.7A6.7,6.7,0,1,1,14.7,6.7c0,1.692-1.289,4.326-3.829,7.831A3.514,3.514,0,0,1,8,16ZM8,1.454A5.255,5.255,0,0,0,2.75,6.7c0,1.34,1.262,3.818,3.552,6.977a2.1,2.1,0,0,0,3.393,0c2.29-3.159,3.552-5.637,3.552-6.977A5.255,5.255,0,0,0,8,1.454Z" fill="#006ad8"/>
  </g>
</svg>
