<svg xmlns="http://www.w3.org/2000/svg" width="24" height="23.994" viewBox="0 0 24 23.994">
  <path id="megaphone" d="M7,0A1,1,0,0,1,8,1c0,2.948,2.582,4,5,4h7a4,4,0,0,1,4,4v2a3.978,3.978,0,0,1-1.514,3.108l-3.571,7.97a3.232,3.232,0,0,1-2.952,1.919,2.981,2.981,0,0,1-2.719-4.2l2.2-4.8H13c-2.416,0-5,1.051-5,4a1,1,0,0,1-2,0V1A1,1,0,0,1,7,0Zm8.061,20.614a.983.983,0,0,0,.9,1.381,1.232,1.232,0,0,0,1.126-.734L19.9,15H17.642ZM8,14.6A7.721,7.721,0,0,1,13,13h7a2,2,0,0,0,2-2V9a2,2,0,0,0-2-2H13A7.721,7.721,0,0,1,8,5.4Zm-7.9.852a1,1,0,0,0,1.342.448l2-1a1,1,0,1,0-.894-1.79l-2,1a1,1,0,0,0-.448,1.337Zm3.789-9a1,1,0,0,0-.448-1.342l-2-1A1,1,0,0,0,.554,5.9l2,1A1,1,0,0,0,3.895,6.45ZM4,10A1,1,0,0,0,3,9h-2a1,1,0,0,0,0,2H3A1,1,0,0,0,4,10Z" transform="translate(0)" fill="#006ad8"/>
</svg>
