<svg xmlns="http://www.w3.org/2000/svg" width="16" height="12" viewBox="0 0 16 12">
  <path id="money-bill-wave" d="M8,12.667A2.667,2.667,0,1,1,10.667,10,2.669,2.669,0,0,1,8,12.667Zm0-4A1.333,1.333,0,1,0,9.334,10,1.335,1.335,0,0,0,8,8.667Zm-4.667-2A.667.667,0,1,0,4,7.333.667.667,0,0,0,3.334,6.667Zm8.667,2A.667.667,0,1,0,12.667,8,.667.667,0,0,0,12,8.667Zm-8.667,2A.667.667,0,1,0,4,11.333.667.667,0,0,0,3.334,10.667Zm8.667,2A.667.667,0,1,0,12.667,12,.667.667,0,0,0,12,12.667ZM11.333,16a11.206,11.206,0,0,1-3.009-.523A10.019,10.019,0,0,0,5.667,15a8.08,8.08,0,0,0-2.279.233,2.621,2.621,0,0,1-2.32-.429A2.651,2.651,0,0,1,0,12.667V7.635A3.36,3.36,0,0,1,2.157,4.514,7.1,7.1,0,0,1,4.669,4a11.21,11.21,0,0,1,3.009.523A10.019,10.019,0,0,0,10.335,5a8.083,8.083,0,0,0,2.279-.233,2.621,2.621,0,0,1,2.321.429A2.651,2.651,0,0,1,16,7.333v5.032h0a3.361,3.361,0,0,1-2.156,3.121A7.1,7.1,0,0,1,11.333,16ZM5.667,13.667a11.21,11.21,0,0,1,3.009.523,10.019,10.019,0,0,0,2.657.477,5.8,5.8,0,0,0,2.037-.427,1.993,1.993,0,0,0,1.3-1.875V7.333a1.329,1.329,0,0,0-.535-1.071,1.3,1.3,0,0,0-1.15-.214,9.278,9.278,0,0,1-2.649.285A11.211,11.211,0,0,1,7.325,5.81a10.019,10.019,0,0,0-2.657-.477A5.8,5.8,0,0,0,2.63,5.76a1.993,1.993,0,0,0-1.3,1.875v5.032a1.329,1.329,0,0,0,.535,1.071,1.3,1.3,0,0,0,1.149.213,9.281,9.281,0,0,1,2.649-.285Z" transform="translate(-0.001 -4)" fill="#006ad8"/>
</svg>


