<svg xmlns="http://www.w3.org/2000/svg" width="21.847" height="21.851" viewBox="0 0 21.847 21.851">
  <path id="moon-stars" d="M8.013,16a8.044,8.044,0,0,0,7.955-8.849A8.08,8.08,0,0,0,9.285.1,8.666,8.666,0,0,0,5.932.238a1.667,1.667,0,0,0-1.2,1.2A1.647,1.647,0,0,0,5.2,3.054a6.046,6.046,0,0,1-.538,9.607h0a1.667,1.667,0,0,0,.467,2.879A9.249,9.249,0,0,0,8.013,16ZM7.963,1.332a7.183,7.183,0,0,1,1.117.085,6.733,6.733,0,0,1,5.562,5.866,6.618,6.618,0,0,1-1.678,5.182,6.981,6.981,0,0,1-7.395,1.823.333.333,0,0,1-.092-.571h0A7.386,7.386,0,0,0,6.109,2.081a.306.306,0,0,1-.085-.31.327.327,0,0,1,.237-.241,7.119,7.119,0,0,1,1.7-.2ZM2.352,8A.667.667,0,0,0,3,7.494l.239-.953.955-.257a.667.667,0,0,0-.023-1.293l-.933-.217L3,3.837a.667.667,0,0,0-1.293,0l-.237.945-.945.237a.667.667,0,0,0,0,1.293l.945.237.237.945a.667.667,0,0,0,.644.5Zm3,1.333a.667.667,0,1,1-.667-.667A.667.667,0,0,1,5.352,9.332ZM1.352,12a.667.667,0,1,1-.667-.667A.667.667,0,0,1,1.352,12Z" transform="translate(7.982 -0.008) rotate(30)" fill="#006ad8"/>
</svg>


