<svg xmlns="http://www.w3.org/2000/svg" xmlns:xlink="http://www.w3.org/1999/xlink" width="16" height="16" viewBox="0 0 16 16">
  <defs>
    <clipPath id="clip-path">
      <rect id="Rectangle_92" data-name="Rectangle 92" width="16" height="16" fill="#006ad8"/>
    </clipPath>
  </defs>
  <g id="Mask_Group_512" data-name="Mask Group 512" clip-path="url(#clip-path)">
    <path id="phone-call" d="M7.371.668A.668.668,0,0,0,6.7,0,6.685,6.685,0,0,0,.026,6.678a.668.668,0,0,0,1.336,0A5.348,5.348,0,0,1,6.7,1.336.668.668,0,0,0,7.371.668ZM6.7,4.007A2.671,2.671,0,0,0,4.033,6.678a.668.668,0,1,1-1.336,0A4.011,4.011,0,0,1,6.7,2.671a.668.668,0,0,1,0,1.336ZM.632,11.178a2.07,2.07,0,0,0,0,2.923l.608.7C6.708,20.037,20.017,6.732,14.862,1.246L14.094.578A2.057,2.057,0,0,0,11.2.6c-.021.021-1.258,1.628-1.258,1.628a2.07,2.07,0,0,0,0,2.859l.773.972A8.535,8.535,0,0,1,6.1,10.7l-.978-.778a2.07,2.07,0,0,0-2.859,0S.652,11.157.632,11.178Zm.919.971s1.6-1.229,1.619-1.25a.735.735,0,0,1,1.034,0c.018.019,1.365,1.092,1.365,1.092a.668.668,0,0,0,.654.1,10.022,10.022,0,0,0,5.89-5.882.668.668,0,0,0-.1-.668s-1.073-1.348-1.091-1.365a.735.735,0,0,1,0-1.034c.021-.02,1.25-1.619,1.25-1.619a.735.735,0,0,1,1.008.026l.768.668c3.767,4.53-7.765,15.423-11.735,11.672l-.608-.7a.749.749,0,0,1-.057-1.04Z" transform="translate(-0.026 0.001)" fill="#006ad8"/>
  </g>
</svg>
