<svg xmlns="http://www.w3.org/2000/svg" xmlns:xlink="http://www.w3.org/1999/xlink" width="16" height="16" viewBox="0 0 16 16">
  <defs>
    <clipPath id="clip-path">
      <rect id="Rectangle_112" data-name="Rectangle 112" width="16" height="16" transform="translate(328 336)" fill="#006ad8"/>
    </clipPath>
  </defs>
  <g id="Mask_Group_447" data-name="Mask Group 447" transform="translate(-328 -336)" clip-path="url(#clip-path)">
    <path id="public_FILL1_wght600_GRAD0_opsz48" d="M9.264,17.255a7.751,7.751,0,0,1-3.1-.627,8.169,8.169,0,0,1-2.548-1.708A7.972,7.972,0,0,1,1.9,12.381a7.8,7.8,0,0,1-.627-3.117A7.8,7.8,0,0,1,1.9,6.147,7.972,7.972,0,0,1,3.619,3.609,8.308,8.308,0,0,1,6.166,1.891a7.7,7.7,0,0,1,3.117-.637,7.629,7.629,0,0,1,3.107.637,8.123,8.123,0,0,1,4.246,4.256,7.7,7.7,0,0,1,.637,3.117,7.8,7.8,0,0,1-.627,3.117,7.972,7.972,0,0,1-1.718,2.538,8.169,8.169,0,0,1-2.548,1.708A7.8,7.8,0,0,1,9.264,17.255ZM8.454,15.71V14.128a1.473,1.473,0,0,1-1.129-.492,1.641,1.641,0,0,1-.454-1.148v-.849L2.992,7.759a5.51,5.51,0,0,0-.135.743,6.914,6.914,0,0,0-.039.743,6.406,6.406,0,0,0,1.6,4.323A6.114,6.114,0,0,0,8.454,15.71Zm5.6-2.046a6.876,6.876,0,0,0,.714-.975,7.018,7.018,0,0,0,.531-1.081,6.222,6.222,0,0,0,.328-1.158,6.785,6.785,0,0,0,.106-1.206A6.493,6.493,0,0,0,11.7,3.2v.328a1.623,1.623,0,0,1-.463,1.148,1.5,1.5,0,0,1-1.139.492H8.454v1.66a.667.667,0,0,1-.261.54.907.907,0,0,1-.589.212H6.041v1.66h4.9a.677.677,0,0,1,.54.251.87.87,0,0,1,.212.579v2.413h.811a1.537,1.537,0,0,1,.965.328,1.633,1.633,0,0,1,.579.849Z" transform="translate(326.726 334.745)" fill="#006ad8"/>
  </g>
</svg>

<svg xmlns="http://www.w3.org/2000/svg" xmlns:xlink="http://www.w3.org/1999/xlink" width="16" height="16" viewBox="0 0 16 16">
  <defs>
    <clipPath id="clip-path">
      <rect id="Rectangle_112" data-name="Rectangle 112" width="16" height="16" transform="translate(328 336)" fill="#006ad8"/>
    </clipPath>
  </defs>
  <g id="Mask_Group_412" data-name="Mask Group 412" transform="translate(-328 -336)" clip-path="url(#clip-path)">
    <path id="verified_FILL1_wght600_GRAD0_opsz48" d="M4.682,14.027l-2.188-.448a.641.641,0,0,1-.439-.26.62.62,0,0,1-.117-.511l.233-2.1L.789,9.076a.7.7,0,0,1,0-.933L2.17,6.529l-.233-2.1a.62.62,0,0,1,.117-.511.712.712,0,0,1,.439-.278l2.188-.43,1.094-1.9a.789.789,0,0,1,.4-.332A.612.612,0,0,1,6.691,1l1.919.9L10.529,1a.684.684,0,0,1,.52-.045.625.625,0,0,1,.395.332l1.112,1.919,2.17.43a.712.712,0,0,1,.439.278.675.675,0,0,1,.135.511l-.251,2.1L16.43,8.143a.7.7,0,0,1,0,.933l-1.381,1.632.251,2.1a.675.675,0,0,1-.135.511.641.641,0,0,1-.439.26l-2.17.448-1.112,1.9a.625.625,0,0,1-.395.332.684.684,0,0,1-.52-.045l-1.919-.9-1.919.9a.612.612,0,0,1-.511.027.789.789,0,0,1-.4-.332Zm2.655-3.444a.694.694,0,0,0,1,0L11.57,7.372a.519.519,0,0,0,.152-.4.611.611,0,0,0-.188-.422.546.546,0,0,0-.422-.17.677.677,0,0,0-.439.188l-2.834,2.8L6.583,8.036a.554.554,0,0,0-.448-.188.61.61,0,0,0-.448.206A.687.687,0,0,0,5.5,8.5a.534.534,0,0,0,.188.43Z" transform="translate(327.39 335.39)" fill="#006ad8"/>
  </g>
</svg>
