<svg xmlns="http://www.w3.org/2000/svg" xmlns:xlink="http://www.w3.org/1999/xlink" width="16" height="16" viewBox="0 0 16 16">
  <defs>
    <clipPath id="clip-path">
      <rect id="Shape" width="16" height="16" transform="translate(16 144)" fill="#006ad8"/>
    </clipPath>
  </defs>
  <g id="Mask_Group_476" data-name="Mask Group 476" transform="translate(-16 -144)" clip-path="url(#clip-path)">
    <path id="share" d="M12.874,9.767a3.1,3.1,0,0,0-2.556,1.348L5.983,9.157a3.046,3.046,0,0,0,0-2.323l4.328-1.967a3.1,3.1,0,1,0-.551-1.76,3.085,3.085,0,0,0,.053.523l-4.6,2.091a3.108,3.108,0,1,0-.01,4.546l4.613,2.083a3.154,3.154,0,0,0-.053.523,3.108,3.108,0,1,0,3.107-3.107Zm0-8.435A1.776,1.776,0,1,1,11.1,3.108a1.776,1.776,0,0,1,1.775-1.776ZM3.108,9.767A1.776,1.776,0,1,1,4.883,7.991,1.776,1.776,0,0,1,3.108,9.767Zm9.766,4.883a1.776,1.776,0,1,1,1.776-1.776,1.776,1.776,0,0,1-1.776,1.776Z" transform="translate(16.018 144.009)" fill="#006ad8"/>
  </g>
</svg>


