<svg xmlns="http://www.w3.org/2000/svg" width="13.333" height="16" viewBox="0 0 13.333 16">
  <g id="shield-check" transform="translate(-1.333 0)">
    <path id="Path_10527" data-name="Path 10527" d="M12.387,1.427,8.211.034a.667.667,0,0,0-.421,0L3.613,1.427A3.329,3.329,0,0,0,1.333,4.589V8c0,5.042,6.133,7.827,6.4,7.943a.667.667,0,0,0,.541,0c.263-.116,6.4-2.9,6.4-7.943V4.589a3.329,3.329,0,0,0-2.279-3.162ZM13.333,8c0,3.637-4.213,6.022-5.333,6.593C6.878,14.024,2.667,11.646,2.667,8V4.589a2,2,0,0,1,1.368-1.9L8,1.369l3.965,1.322a2,2,0,0,1,1.368,1.9Z" fill="#006ad8"/>
    <path id="Path_10528" data-name="Path 10528" d="M10.2,5.533l-2.792,2.8-1.5-1.56a.667.667,0,1,0-.961.924L6.489,9.3a1.248,1.248,0,0,0,.9.4h.022a1.249,1.249,0,0,0,.89-.369l2.848-2.848a.669.669,0,1,0-.945-.947Z" fill="#006ad8"/>
  </g>
</svg>