<svg xmlns="http://www.w3.org/2000/svg" width="16" height="15.998" viewBox="0 0 16 15.998">
  <path id="cloud-sun" d="M9.26,16c-1.307,0-2.558-.005-2.994-.017a2.5,2.5,0,0,1-.556-.081,2.333,2.333,0,0,1-.3-4.392,4.244,4.244,0,0,1,.038-1.821,4,4,0,0,1,7.578-.57c.091.217.191.24.391.285l.117.028h0a3.342,3.342,0,0,1,2.372,4A3.3,3.3,0,0,1,13.442,15.9a3.522,3.522,0,0,1-.709.087C12.151,15.992,10.674,16,9.26,16Zm.06-8.014a2.7,2.7,0,0,0-.393.029,2.662,2.662,0,0,0-2.2,3.186,1.345,1.345,0,0,1-.787,1.533,1,1,0,0,0-.567,1.2.982.982,0,0,0,.68.679,1.115,1.115,0,0,0,.255.038c.895.024,5.3.02,6.4,0a2.156,2.156,0,0,0,.438-.054,1.984,1.984,0,0,0,1.467-1.462,2.015,2.015,0,0,0-1.421-2.414l-.061-.014a1.721,1.721,0,0,1-1.333-1.074A2.675,2.675,0,0,0,9.32,7.984Zm-7.8,3.278a.667.667,0,0,1-.341-1.24L2.984,8.947a.333.333,0,0,0,.2-.36A4.283,4.283,0,0,1,3.051,8H.667a.667.667,0,1,1,0-1.333H3.05a4.137,4.137,0,0,1,.258-.933l-2.052-1.2a.667.667,0,1,1,.673-1.15L4,4.592a4.478,4.478,0,0,1,.634-.623L3.406,1.9a.667.667,0,0,1,1.147-.68L5.782,3.295a4.333,4.333,0,0,1,.884-.242V.667A.667.667,0,0,1,8,.667V3.051a4.091,4.091,0,0,1,.923.257l1.215-2.076a.667.667,0,0,1,1.151.674L10.06,4c.285.183.478.667.847.478l1.759-1.167A.667.667,0,1,1,13.4,4.426L11.609,5.613a1.674,1.674,0,0,1-2.1-.295,3.133,3.133,0,0,0-2.188-.985,3.128,3.128,0,0,0-2.99,3.015A2.743,2.743,0,0,0,4.46,8.2a1.641,1.641,0,0,1-.821,1.908L1.86,11.167A.667.667,0,0,1,1.52,11.261Z" fill="#006ad8"/>
</svg>
