<svg xmlns="http://www.w3.org/2000/svg" xmlns:xlink="http://www.w3.org/1999/xlink" width="16" height="16" viewBox="0 0 16 16">
  <defs>
    <clipPath id="clip-path">
      <rect id="Rectangle_6805" data-name="Rectangle 6805" width="16" height="16" transform="translate(200 17)" fill="#006ad8" stroke="#006ad8" stroke-width="1"/>
    </clipPath>
  </defs>
  <g id="Mask_Group_508" data-name="Mask Group 508" transform="translate(-200 -17)" clip-path="url(#clip-path)">
    <g id="ticket" transform="translate(200 17)">
      <path id="Path_10493" data-name="Path 10493" d="M10.667,0H10.58A1.347,1.347,0,0,0,9.286,1.021a1.333,1.333,0,0,1-2.572,0A1.347,1.347,0,0,0,5.42,0H5.333A3.337,3.337,0,0,0,2,3.333V14a2,2,0,0,0,2,2H5.42a1.347,1.347,0,0,0,1.294-1.021,1.333,1.333,0,0,1,2.572,0A1.347,1.347,0,0,0,10.58,16H12a2,2,0,0,0,2-2V3.333A3.337,3.337,0,0,0,10.667,0ZM12,14.667l-1.429-.042a2.667,2.667,0,0,0-5.151.042H4A.667.667,0,0,1,3.333,14V11.333H4.667a.667.667,0,0,0,0-1.333H3.333V3.333a2,2,0,0,1,2-2l.1.042A2.673,2.673,0,0,0,8,3.333a2.714,2.714,0,0,0,2.6-2h.071a2,2,0,0,1,2,2V10H11.333a.667.667,0,0,0,0,1.333h1.333V14A.667.667,0,0,1,12,14.667Z" fill="#006ad8"/>
      <path id="Path_10494" data-name="Path 10494" d="M8.667,10H7.333a.667.667,0,0,0,0,1.333H8.667a.667.667,0,0,0,0-1.333Z" fill="#006ad8"/>
    </g>
  </g>
</svg>