<svg xmlns="http://www.w3.org/2000/svg" width="12" height="16" viewBox="0 0 12 16">
  <g id="user" transform="translate(-2)">
    <path id="Path_10509" data-name="Path 10509" d="M8,8A4,4,0,1,0,4,4,4,4,0,0,0,8,8ZM8,1.333A2.667,2.667,0,1,1,5.333,4,2.667,2.667,0,0,1,8,1.333Z" fill="#006ad8"/>
    <path id="Path_10510" data-name="Path 10510" d="M8,9.333a6.007,6.007,0,0,0-6,6,.667.667,0,1,0,1.333,0,4.667,4.667,0,0,1,9.333,0,.667.667,0,0,0,1.333,0A6.007,6.007,0,0,0,8,9.333Z" fill="#006ad8"/>
  </g>
</svg>
