<svg xmlns="http://www.w3.org/2000/svg" width="12.757" height="16" viewBox="0 0 12.757 16">
  <path id="verified_user_FILL0_wght300_GRAD-25_opsz48" d="M9.428,11.533l-1.74-1.74a.527.527,0,0,0-.354-.129.46.46,0,0,0-.472.483.489.489,0,0,0,.14.333l1.954,1.976a.644.644,0,0,0,.44.172.57.57,0,0,0,.419-.172l3.78-3.78a.494.494,0,0,0,0-.666.467.467,0,0,0-.644,0Zm.881,6.787a1.232,1.232,0,0,1-.15-.011.417.417,0,0,1-.129-.032,8.361,8.361,0,0,1-4.381-3.35,9.473,9.473,0,0,1-1.718-5.5V5.455a1.217,1.217,0,0,1,.215-.687,1.133,1.133,0,0,1,.58-.451L9.9,2.384a1.282,1.282,0,0,1,.408-.064,1.488,1.488,0,0,1,.43.064l5.176,1.933a1.142,1.142,0,0,1,.558.451,1.217,1.217,0,0,1,.215.687V9.428a9.473,9.473,0,0,1-1.718,5.5,8.368,8.368,0,0,1-4.36,3.35Zm0-.945a7.454,7.454,0,0,0,3.909-3,8.555,8.555,0,0,0,1.525-4.95V5.412a.225.225,0,0,0-.032-.118.189.189,0,0,0-.075-.075l-5.2-1.933a.4.4,0,0,0-.258,0l-5.2,1.933a.189.189,0,0,0-.075.075.225.225,0,0,0-.032.118V9.428A8.555,8.555,0,0,0,6.4,14.379,7.454,7.454,0,0,0,10.309,17.374Zm0-7.044Z" transform="translate(-3.93 -2.319)" fill="#006ad8"/>
</svg>
