<svg xmlns="http://www.w3.org/2000/svg" xmlns:xlink="http://www.w3.org/1999/xlink" width="16" height="16" viewBox="0 0 16 16">
  <defs>
    <clipPath id="clip-path">
      <rect id="Rectangle_112" data-name="Rectangle 112" width="16" height="16" transform="translate(328 336)" fill="#006ad8"/>
    </clipPath>
  </defs>
  <g id="Mask_Group_412" data-name="Mask Group 412" transform="translate(-328 -336)" clip-path="url(#clip-path)">
    <path id="verified_FILL1_wght600_GRAD0_opsz48" d="M4.682,14.027l-2.188-.448a.641.641,0,0,1-.439-.26.62.62,0,0,1-.117-.511l.233-2.1L.789,9.076a.7.7,0,0,1,0-.933L2.17,6.529l-.233-2.1a.62.62,0,0,1,.117-.511.712.712,0,0,1,.439-.278l2.188-.43,1.094-1.9a.789.789,0,0,1,.4-.332A.612.612,0,0,1,6.691,1l1.919.9L10.529,1a.684.684,0,0,1,.52-.045.625.625,0,0,1,.395.332l1.112,1.919,2.17.43a.712.712,0,0,1,.439.278.675.675,0,0,1,.135.511l-.251,2.1L16.43,8.143a.7.7,0,0,1,0,.933l-1.381,1.632.251,2.1a.675.675,0,0,1-.135.511.641.641,0,0,1-.439.26l-2.17.448-1.112,1.9a.625.625,0,0,1-.395.332.684.684,0,0,1-.52-.045l-1.919-.9-1.919.9a.612.612,0,0,1-.511.027.789.789,0,0,1-.4-.332Zm2.655-3.444a.694.694,0,0,0,1,0L11.57,7.372a.519.519,0,0,0,.152-.4.611.611,0,0,0-.188-.422.546.546,0,0,0-.422-.17.677.677,0,0,0-.439.188l-2.834,2.8L6.583,8.036a.554.554,0,0,0-.448-.188.61.61,0,0,0-.448.206A.687.687,0,0,0,5.5,8.5a.534.534,0,0,0,.188.43Z" transform="translate(327.39 335.39)" fill="#006ad8"/>
  </g>
</svg>


