<svg id="visa" xmlns="http://www.w3.org/2000/svg" width="32" height="9.702" viewBox="0 0 32 9.702">
  <path id="Path_6780" data-name="Path 6780" d="M11.733,20.6l1.625-9.143H15.9L14.324,20.6Z" transform="translate(0 -11.149)" fill="#3c58bf"/>
  <path id="Path_6781" data-name="Path 6781" d="M11.733,20.6l2.083-9.143H15.9L14.324,20.6Z" transform="translate(0 -11.149)" fill="#293688"/>
  <path id="Path_6782" data-name="Path 6782" d="M23.517,11.556a6.443,6.443,0,0,0-2.337-.406c-2.54,0-4.368,1.27-4.368,3.1,0,1.371,1.27,2.083,2.286,2.54s1.321.762,1.321,1.168c0,.61-.813.914-1.524.914a5.521,5.521,0,0,1-2.438-.508L16.1,18.21l-.356,2.083a8.236,8.236,0,0,0,2.9.508c2.692,0,4.47-1.27,4.47-3.2,0-1.067-.66-1.879-2.184-2.54-.914-.457-1.473-.711-1.473-1.168,0-.406.457-.813,1.473-.813a4.659,4.659,0,0,1,1.93.356l.254.1.406-1.981Z" transform="translate(0 -11.149)" fill="#3c58bf"/>
  <path id="Path_6783" data-name="Path 6783" d="M23.517,11.556a6.443,6.443,0,0,0-2.337-.406c-2.54,0-3.911,1.27-3.911,3.1a2.655,2.655,0,0,0,1.829,2.54c1.016.457,1.321.762,1.321,1.168,0,.61-.813.914-1.524.914a5.521,5.521,0,0,1-2.438-.508L16.1,18.21l-.356,2.083a8.236,8.236,0,0,0,2.9.508c2.692,0,4.47-1.27,4.47-3.2,0-1.067-.66-1.879-2.184-2.54-.914-.457-1.473-.711-1.473-1.168,0-.406.457-.813,1.473-.813a4.659,4.659,0,0,1,1.93.356l.254.1.406-1.981Z" transform="translate(0 -11.149)" fill="#293688"/>
  <path id="Path_6784" data-name="Path 6784" d="M27.886,11.454c-.61,0-1.067.051-1.321.66L22.756,20.6H25.5l.508-1.524h3.251l.3,1.524H32l-2.133-9.143Zm-1.168,6.1c.152-.457,1.016-2.692,1.016-2.692s.2-.559.356-.914l.152.863s.508,2.286.61,2.794H26.717Z" transform="translate(0 -11.149)" fill="#3c58bf"/>
  <path id="Path_6785" data-name="Path 6785" d="M28.5,11.454c-.61,0-1.067.051-1.321.66L22.756,20.6H25.5l.508-1.524h3.251l.3,1.524H32l-2.133-9.143Zm-1.778,6.1c.2-.508,1.016-2.692,1.016-2.692s.2-.559.356-.914l.152.863s.508,2.286.61,2.794H26.717Z" transform="translate(0 -11.149)" fill="#293688"/>
  <path id="Path_6786" data-name="Path 6786" d="M7.06,17.854l-.254-1.321a7.363,7.363,0,0,0-3.556-4.013l2.286,8.127H8.279L12.394,11.5H9.651Z" transform="translate(0 -11.149)" fill="#3c58bf"/>
  <path id="Path_6787" data-name="Path 6787" d="M7.06,17.854l-.254-1.321a7.363,7.363,0,0,0-3.556-4.013l2.286,8.127H8.279L12.394,11.5H10.159Z" transform="translate(0 -11.149)" fill="#293688"/>
  <path id="Path_6788" data-name="Path 6788" d="M0,11.454l.457.1a8.566,8.566,0,0,1,6.349,4.978l-.914-4.317c-.152-.61-.61-.762-1.168-.762Z" transform="translate(0 -11.149)" fill="#ffbc00"/>
  <path id="Path_6789" data-name="Path 6789" d="M0,11.454H0c3.251.762,5.943,2.743,6.806,5.029l-.863-3.606a1.24,1.24,0,0,0-1.219-.965Z" transform="translate(0 -11.149)" fill="#f7981d"/>
  <path id="Path_6790" data-name="Path 6790" d="M0,11.454H0c3.251.762,5.943,2.743,6.806,5.029L6.2,14.5A1.791,1.791,0,0,0,5.13,13.029Z" transform="translate(0 -11.149)" fill="#ed7c00"/>
  <g id="Group_5680" data-name="Group 5680" transform="translate(3.302 1.321)">
    <path id="Path_6791" data-name="Path 6791" d="M9.6,17.549,7.873,15.822l-.813,1.93-.2-1.27A7.363,7.363,0,0,0,3.3,12.47L5.587,20.6H8.33Z" transform="translate(-3.302 -12.47)" fill="#051244"/>
    <path id="Path_6792" data-name="Path 6792" d="M14.324,20.6,12.14,18.362,11.733,20.6Z" transform="translate(-3.302 -12.47)" fill="#051244"/>
    <path id="Path_6793" data-name="Path 6793" d="M20.165,17.448h0c.2.2.3.356.254.559,0,.61-.813.914-1.524.914a5.521,5.521,0,0,1-2.438-.508L16.1,18.26l-.356,2.083a8.236,8.236,0,0,0,2.9.508,5.029,5.029,0,0,0,3.708-1.27Z" transform="translate(-3.302 -12.47)" fill="#051244"/>
    <path id="Path_6794" data-name="Path 6794" d="M23.111,20.6H25.5l.508-1.524h3.251l.3,1.524H32l-.863-3.708-3.048-2.946.152.813s.508,2.286.61,2.794H26.717c.2-.508,1.016-2.692,1.016-2.692s.2-.559.356-.914" transform="translate(-3.302 -12.47)" fill="#051244"/>
  </g>
</svg>
