<svg xmlns="http://www.w3.org/2000/svg" width="16" height="16" viewBox="0 0 16 16">
  <path id="world" d="M8,0a8,8,0,1,0,8,8A8,8,0,0,0,8,0Zm6.667,8a6.625,6.625,0,0,1-1.108,3.672l-.795-.8a.333.333,0,0,1-.1-.235V10a2,2,0,0,0-2-2h-2A.667.667,0,0,1,8,7.333V7a.333.333,0,0,1,.333-.333A1.667,1.667,0,0,0,10,5V4.333A.333.333,0,0,1,10.333,4h.919a1.677,1.677,0,0,0,1.178-.488l.251-.251A6.646,6.646,0,0,1,14.667,8Zm-13.3.642,2.105,2.105a1.985,1.985,0,0,0,1.415.586H6.667A.667.667,0,0,1,7.333,12v2.633A6.677,6.677,0,0,1,1.366,8.642Zm7.3,5.991V12a2,2,0,0,0-2-2H4.886a.667.667,0,0,1-.472-.2L1.442,6.833a6.652,6.652,0,0,1,10.2-4.413l-.149.149a.338.338,0,0,1-.235.1h-.919A1.667,1.667,0,0,0,8.667,4.333V5a.333.333,0,0,1-.333.333A1.667,1.667,0,0,0,6.667,7v.333a2,2,0,0,0,2,2h2a.667.667,0,0,1,.667.667v.641a1.677,1.677,0,0,0,.488,1.178l.891.891a6.647,6.647,0,0,1-4.046,1.922Z" transform="translate(0 0)" fill="#006ad8"/>
</svg>
